<?xml version="1.0" encoding="UTF-8"?>
<svg id="Layer_1" xmlns="http://www.w3.org/2000/svg" version="1.1" viewBox="0 0 130 130">
  <!-- Generator: Adobe Illustrator 29.4.0, SVG Export Plug-In . SVG Version: 2.1.0 Build 152)  -->
  <defs>
    <style>
      .st0 {
        fill: #f7f6fb;
      }
    </style>
  </defs>
  <path class="st0" d="M118,0H12C5.4,0,0,5.4,0,12v106c0,6.6,5.4,12,12,12h6.8V29.9c0-.6.6-1.2,1.2-1.2h38.5c.6,0,1.2.5,1.2,1.2v5.4c0,.6-.5,1.2-1.2,1.2h-30.3c-.6,0-1.2.5-1.2,1.2v24.9c0,.6.5,1.2,1.2,1.2h30.3c.6,0,1.2.5,1.2,1.2v5.4c0,.6-.5,1.2-1.2,1.2h-30.3c-.6,0-1.2.5-1.2,1.2v57.3s40.8,0,40.8,0v-65.2c0-.6.5-1.2,1.2-1.2h38.5c.6,0,1.2.5,1.2,1.2v5.4c0,.6-.5,1.2-1.2,1.2h-30.3c-.6,0-1.2.5-1.2,1.2v24.9c0,.6.5,1.2,1.2,1.2h30.3c.6,0,1.2.5,1.2,1.2v5.4c0,.6-.5,1.2-1.2,1.2h-30.3c-.6,0-1.2.5-1.2,1.2v22.4h42.1c6.6,0,12-5.4,12-12V12c0-6.6-5.4-12-12-12ZM67.7,62.6c0,.6-.5,1.2-1.2,1.2h-5.8c-.6,0-1.2-.5-1.2-1.2v-24.9c0-.6.5-1.2,1.2-1.2h5.8c.6,0,1.2.5,1.2,1.2v24.9ZM116.7,97.5c0,.6-.5,1.2-1.2,1.2h-5.8c-.6,0-1.2-.5-1.2-1.2v-24.9c0-.6.5-1.2,1.2-1.2h5.8c.6,0,1.2.5,1.2,1.2v24.9Z"/>
</svg>